<mxfile host="Electron" modified="2024-05-21T01:36:41.385Z" agent="Mozilla/5.0 (Windows NT 10.0; Win64; x64) AppleWebKit/537.36 (KHTML, like Gecko) draw.io/24.2.5 Chrome/120.0.6099.109 Electron/28.1.0 Safari/537.36" etag="EbgjwpwrPBTXqM6_FvD4" version="24.2.5" type="device">
  <diagram name="第 1 页" id="tr266JfwDst_PnRiNIE3">
    <mxGraphModel dx="2204" dy="1620" grid="1" gridSize="10" guides="1" tooltips="1" connect="1" arrows="1" fold="1" page="1" pageScale="1" pageWidth="3300" pageHeight="4681" math="0" shadow="0">
      <root>
        <mxCell id="0" />
        <mxCell id="1" parent="0" />
        <mxCell id="sRfE5GBA3tL96DVJPCX4-1" value="" style="rounded=0;whiteSpace=wrap;html=1;" parent="1" vertex="1">
          <mxGeometry x="220" y="130" width="400" height="80" as="geometry" />
        </mxCell>
        <mxCell id="sRfE5GBA3tL96DVJPCX4-2" value="" style="rounded=0;whiteSpace=wrap;html=1;" parent="1" vertex="1">
          <mxGeometry x="220" y="130" width="40" height="80" as="geometry" />
        </mxCell>
        <mxCell id="sRfE5GBA3tL96DVJPCX4-3" value="" style="rounded=0;whiteSpace=wrap;html=1;" parent="1" vertex="1">
          <mxGeometry x="300" y="130" width="40" height="80" as="geometry" />
        </mxCell>
        <mxCell id="sRfE5GBA3tL96DVJPCX4-4" value="" style="rounded=0;whiteSpace=wrap;html=1;" parent="1" vertex="1">
          <mxGeometry x="380" y="130" width="40" height="80" as="geometry" />
        </mxCell>
        <mxCell id="sRfE5GBA3tL96DVJPCX4-5" value="" style="rounded=0;whiteSpace=wrap;html=1;" parent="1" vertex="1">
          <mxGeometry x="460" y="130" width="40" height="80" as="geometry" />
        </mxCell>
        <mxCell id="sRfE5GBA3tL96DVJPCX4-6" value="" style="rounded=0;whiteSpace=wrap;html=1;" parent="1" vertex="1">
          <mxGeometry x="540" y="130" width="40" height="80" as="geometry" />
        </mxCell>
        <mxCell id="sRfE5GBA3tL96DVJPCX4-9" value="" style="rounded=0;whiteSpace=wrap;html=1;" parent="1" vertex="1">
          <mxGeometry x="220" y="240" width="400" height="80" as="geometry" />
        </mxCell>
        <mxCell id="sRfE5GBA3tL96DVJPCX4-10" value="" style="rounded=0;whiteSpace=wrap;html=1;" parent="1" vertex="1">
          <mxGeometry x="220" y="240" width="40" height="80" as="geometry" />
        </mxCell>
        <mxCell id="sRfE5GBA3tL96DVJPCX4-11" value="" style="rounded=0;whiteSpace=wrap;html=1;" parent="1" vertex="1">
          <mxGeometry x="300" y="240" width="40" height="80" as="geometry" />
        </mxCell>
        <mxCell id="sRfE5GBA3tL96DVJPCX4-12" value="" style="rounded=0;whiteSpace=wrap;html=1;" parent="1" vertex="1">
          <mxGeometry x="380" y="240" width="40" height="80" as="geometry" />
        </mxCell>
        <mxCell id="sRfE5GBA3tL96DVJPCX4-13" value="" style="rounded=0;whiteSpace=wrap;html=1;" parent="1" vertex="1">
          <mxGeometry x="460" y="240" width="40" height="80" as="geometry" />
        </mxCell>
        <mxCell id="sRfE5GBA3tL96DVJPCX4-14" value="" style="rounded=0;whiteSpace=wrap;html=1;" parent="1" vertex="1">
          <mxGeometry x="540" y="240" width="40" height="80" as="geometry" />
        </mxCell>
        <mxCell id="sRfE5GBA3tL96DVJPCX4-15" value="&lt;font style=&quot;font-size: 24px;&quot;&gt;q1&lt;/font&gt;" style="text;html=1;align=center;verticalAlign=middle;resizable=0;points=[];autosize=1;strokeColor=none;fillColor=none;" parent="1" vertex="1">
          <mxGeometry x="115" y="140" width="50" height="40" as="geometry" />
        </mxCell>
        <mxCell id="sRfE5GBA3tL96DVJPCX4-16" value="&lt;font style=&quot;font-size: 24px;&quot;&gt;q2&lt;/font&gt;" style="text;html=1;align=center;verticalAlign=middle;resizable=0;points=[];autosize=1;strokeColor=none;fillColor=none;" parent="1" vertex="1">
          <mxGeometry x="115" y="260" width="50" height="40" as="geometry" />
        </mxCell>
        <mxCell id="sRfE5GBA3tL96DVJPCX4-17" value="&lt;font style=&quot;font-size: 24px;&quot;&gt;1&lt;/font&gt;" style="text;html=1;align=center;verticalAlign=middle;resizable=0;points=[];autosize=1;strokeColor=none;fillColor=none;" parent="1" vertex="1">
          <mxGeometry x="580" y="150" width="40" height="40" as="geometry" />
        </mxCell>
        <mxCell id="sRfE5GBA3tL96DVJPCX4-18" value="&lt;font style=&quot;font-size: 18px;&quot;&gt;右：队头&lt;/font&gt;" style="text;html=1;align=center;verticalAlign=middle;resizable=0;points=[];autosize=1;strokeColor=none;fillColor=none;" parent="1" vertex="1">
          <mxGeometry x="600" y="90" width="100" height="40" as="geometry" />
        </mxCell>
        <mxCell id="sRfE5GBA3tL96DVJPCX4-19" value="&lt;font style=&quot;font-size: 18px;&quot;&gt;左：队尾&lt;/font&gt;" style="text;html=1;align=center;verticalAlign=middle;resizable=0;points=[];autosize=1;strokeColor=none;fillColor=none;" parent="1" vertex="1">
          <mxGeometry x="140" y="90" width="100" height="40" as="geometry" />
        </mxCell>
        <mxCell id="sRfE5GBA3tL96DVJPCX4-20" value="&lt;font style=&quot;font-size: 24px;&quot;&gt;2&lt;/font&gt;" style="text;html=1;align=center;verticalAlign=middle;resizable=0;points=[];autosize=1;strokeColor=none;fillColor=none;" parent="1" vertex="1">
          <mxGeometry x="540" y="150" width="40" height="40" as="geometry" />
        </mxCell>
        <mxCell id="sRfE5GBA3tL96DVJPCX4-21" value="&lt;font style=&quot;font-size: 24px;&quot;&gt;3&lt;/font&gt;" style="text;html=1;align=center;verticalAlign=middle;resizable=0;points=[];autosize=1;strokeColor=none;fillColor=none;" parent="1" vertex="1">
          <mxGeometry x="500" y="150" width="40" height="40" as="geometry" />
        </mxCell>
        <mxCell id="sRfE5GBA3tL96DVJPCX4-22" value="&lt;font style=&quot;font-size: 24px;&quot;&gt;4&lt;/font&gt;" style="text;html=1;align=center;verticalAlign=middle;resizable=0;points=[];autosize=1;strokeColor=none;fillColor=none;" parent="1" vertex="1">
          <mxGeometry x="460" y="150" width="40" height="40" as="geometry" />
        </mxCell>
        <mxCell id="ISVN9FL7Q3ZEPOrMpn_P-1" value="" style="rounded=0;whiteSpace=wrap;html=1;" parent="1" vertex="1">
          <mxGeometry x="270" y="490" width="490" height="70" as="geometry" />
        </mxCell>
        <mxCell id="ISVN9FL7Q3ZEPOrMpn_P-2" value="" style="rounded=0;whiteSpace=wrap;html=1;" parent="1" vertex="1">
          <mxGeometry x="340" y="490" width="70" height="70" as="geometry" />
        </mxCell>
        <mxCell id="ISVN9FL7Q3ZEPOrMpn_P-3" value="" style="rounded=0;whiteSpace=wrap;html=1;" parent="1" vertex="1">
          <mxGeometry x="480" y="490" width="70" height="70" as="geometry" />
        </mxCell>
        <mxCell id="ISVN9FL7Q3ZEPOrMpn_P-4" value="" style="rounded=0;whiteSpace=wrap;html=1;" parent="1" vertex="1">
          <mxGeometry x="620" y="490" width="70" height="70" as="geometry" />
        </mxCell>
        <mxCell id="ISVN9FL7Q3ZEPOrMpn_P-5" value="&lt;font style=&quot;font-size: 18px;&quot;&gt;head&lt;/font&gt;" style="text;html=1;align=center;verticalAlign=middle;resizable=0;points=[];autosize=1;strokeColor=none;fillColor=none;" parent="1" vertex="1">
          <mxGeometry x="410" y="570" width="60" height="40" as="geometry" />
        </mxCell>
        <mxCell id="ISVN9FL7Q3ZEPOrMpn_P-6" value="&lt;font style=&quot;font-size: 18px;&quot;&gt;tail&lt;/font&gt;" style="text;html=1;align=center;verticalAlign=middle;resizable=0;points=[];autosize=1;strokeColor=none;fillColor=none;" parent="1" vertex="1">
          <mxGeometry x="345" y="570" width="50" height="40" as="geometry" />
        </mxCell>
        <mxCell id="ISVN9FL7Q3ZEPOrMpn_P-7" value="&lt;font style=&quot;font-size: 24px;&quot;&gt;2&lt;/font&gt;" style="text;html=1;align=center;verticalAlign=middle;resizable=0;points=[];autosize=1;strokeColor=none;fillColor=none;" parent="1" vertex="1">
          <mxGeometry x="495" y="505" width="40" height="40" as="geometry" />
        </mxCell>
        <mxCell id="ISVN9FL7Q3ZEPOrMpn_P-8" value="&lt;font style=&quot;font-size: 24px;&quot;&gt;1&lt;/font&gt;" style="text;html=1;align=center;verticalAlign=middle;resizable=0;points=[];autosize=1;strokeColor=none;fillColor=none;" parent="1" vertex="1">
          <mxGeometry x="420" y="505" width="40" height="40" as="geometry" />
        </mxCell>
        <mxCell id="ISVN9FL7Q3ZEPOrMpn_P-9" value="&lt;font style=&quot;font-size: 24px;&quot;&gt;3&lt;/font&gt;" style="text;html=1;align=center;verticalAlign=middle;resizable=0;points=[];autosize=1;strokeColor=none;fillColor=none;" parent="1" vertex="1">
          <mxGeometry x="560" y="505" width="40" height="40" as="geometry" />
        </mxCell>
        <mxCell id="ISVN9FL7Q3ZEPOrMpn_P-10" value="&lt;font style=&quot;font-size: 24px;&quot;&gt;4&lt;/font&gt;" style="text;html=1;align=center;verticalAlign=middle;resizable=0;points=[];autosize=1;strokeColor=none;fillColor=none;" parent="1" vertex="1">
          <mxGeometry x="635" y="505" width="40" height="40" as="geometry" />
        </mxCell>
        <mxCell id="ISVN9FL7Q3ZEPOrMpn_P-12" value="&lt;font style=&quot;font-size: 24px;&quot;&gt;5&lt;/font&gt;" style="text;html=1;align=center;verticalAlign=middle;resizable=0;points=[];autosize=1;strokeColor=none;fillColor=none;" parent="1" vertex="1">
          <mxGeometry x="700" y="505" width="40" height="40" as="geometry" />
        </mxCell>
        <mxCell id="ISVN9FL7Q3ZEPOrMpn_P-13" value="&lt;font style=&quot;font-size: 24px;&quot;&gt;6&lt;/font&gt;" style="text;html=1;align=center;verticalAlign=middle;resizable=0;points=[];autosize=1;strokeColor=none;fillColor=none;" parent="1" vertex="1">
          <mxGeometry x="290" y="505" width="40" height="40" as="geometry" />
        </mxCell>
        <mxCell id="ISVN9FL7Q3ZEPOrMpn_P-14" value="" style="rounded=0;whiteSpace=wrap;html=1;" parent="1" vertex="1">
          <mxGeometry x="270" y="660" width="490" height="70" as="geometry" />
        </mxCell>
        <mxCell id="ISVN9FL7Q3ZEPOrMpn_P-15" value="" style="rounded=0;whiteSpace=wrap;html=1;" parent="1" vertex="1">
          <mxGeometry x="340" y="660" width="70" height="70" as="geometry" />
        </mxCell>
        <mxCell id="ISVN9FL7Q3ZEPOrMpn_P-16" value="" style="rounded=0;whiteSpace=wrap;html=1;" parent="1" vertex="1">
          <mxGeometry x="480" y="660" width="70" height="70" as="geometry" />
        </mxCell>
        <mxCell id="ISVN9FL7Q3ZEPOrMpn_P-17" value="" style="rounded=0;whiteSpace=wrap;html=1;" parent="1" vertex="1">
          <mxGeometry x="620" y="660" width="70" height="70" as="geometry" />
        </mxCell>
        <mxCell id="ISVN9FL7Q3ZEPOrMpn_P-18" value="&lt;font style=&quot;font-size: 18px;&quot;&gt;head&lt;/font&gt;" style="text;html=1;align=center;verticalAlign=middle;resizable=0;points=[];autosize=1;strokeColor=none;fillColor=none;" parent="1" vertex="1">
          <mxGeometry x="410" y="740" width="60" height="40" as="geometry" />
        </mxCell>
        <mxCell id="ISVN9FL7Q3ZEPOrMpn_P-19" value="&lt;font style=&quot;font-size: 18px;&quot;&gt;tail&lt;/font&gt;" style="text;html=1;align=center;verticalAlign=middle;resizable=0;points=[];autosize=1;strokeColor=none;fillColor=none;" parent="1" vertex="1">
          <mxGeometry x="410" y="770" width="50" height="40" as="geometry" />
        </mxCell>
        <mxCell id="TWNNGLDI1bBoxXsqwokH-1" value="&lt;font style=&quot;font-size: 24px;&quot;&gt;1&lt;/font&gt;" style="ellipse;whiteSpace=wrap;html=1;aspect=fixed;" vertex="1" parent="1">
          <mxGeometry x="1470" y="465" width="80" height="80" as="geometry" />
        </mxCell>
        <mxCell id="TWNNGLDI1bBoxXsqwokH-4" value="&lt;span style=&quot;font-size: 24px;&quot;&gt;5&lt;/span&gt;" style="ellipse;whiteSpace=wrap;html=1;aspect=fixed;" vertex="1" parent="1">
          <mxGeometry x="1370" y="570" width="80" height="80" as="geometry" />
        </mxCell>
        <mxCell id="TWNNGLDI1bBoxXsqwokH-5" value="&lt;font style=&quot;font-size: 24px;&quot;&gt;3&lt;/font&gt;&lt;span style=&quot;color: rgba(0, 0, 0, 0); font-family: monospace; font-size: 0px; text-align: start; text-wrap: nowrap;&quot;&gt;%3CmxGraphModel%3E%3Croot%3E%3CmxCell%20id%3D%220%22%2F%3E%3CmxCell%20id%3D%221%22%20parent%3D%220%22%2F%3E%3CmxCell%20id%3D%222%22%20value%3D%22%26lt%3Bfont%20style%3D%26quot%3Bfont-size%3A%2024px%3B%26quot%3B%26gt%3B1%26lt%3B%2Ffont%26gt%3B%22%20style%3D%22ellipse%3BwhiteSpace%3Dwrap%3Bhtml%3D1%3Baspect%3Dfixed%3B%22%20vertex%3D%221%22%20parent%3D%221%22%3E%3CmxGeometry%20x%3D%221470%22%20y%3D%22505%22%20width%3D%2280%22%20height%3D%2280%22%20as%3D%22geometry%22%2F%3E%3C%2FmxCell%3E%3C%2Froot%3E%3C%2FmxGraphModel%3E&lt;/span&gt;" style="ellipse;whiteSpace=wrap;html=1;aspect=fixed;" vertex="1" parent="1">
          <mxGeometry x="1550" y="570" width="80" height="80" as="geometry" />
        </mxCell>
        <mxCell id="TWNNGLDI1bBoxXsqwokH-6" value="&lt;font style=&quot;font-size: 24px;&quot;&gt;8&lt;/font&gt;" style="ellipse;whiteSpace=wrap;html=1;aspect=fixed;" vertex="1" parent="1">
          <mxGeometry x="1300" y="680" width="80" height="80" as="geometry" />
        </mxCell>
        <mxCell id="TWNNGLDI1bBoxXsqwokH-7" value="&lt;font style=&quot;font-size: 24px;&quot;&gt;7&lt;/font&gt;" style="ellipse;whiteSpace=wrap;html=1;aspect=fixed;" vertex="1" parent="1">
          <mxGeometry x="1420" y="680" width="80" height="80" as="geometry" />
        </mxCell>
        <mxCell id="TWNNGLDI1bBoxXsqwokH-8" value="&lt;font style=&quot;font-size: 24px;&quot;&gt;6&lt;/font&gt;" style="ellipse;whiteSpace=wrap;html=1;aspect=fixed;" vertex="1" parent="1">
          <mxGeometry x="1510" y="680" width="80" height="80" as="geometry" />
        </mxCell>
        <mxCell id="TWNNGLDI1bBoxXsqwokH-9" value="" style="endArrow=none;html=1;rounded=0;entryX=0;entryY=1;entryDx=0;entryDy=0;exitX=1;exitY=0;exitDx=0;exitDy=0;" edge="1" parent="1" source="TWNNGLDI1bBoxXsqwokH-4" target="TWNNGLDI1bBoxXsqwokH-1">
          <mxGeometry width="50" height="50" relative="1" as="geometry">
            <mxPoint x="1490" y="730" as="sourcePoint" />
            <mxPoint x="1540" y="680" as="targetPoint" />
          </mxGeometry>
        </mxCell>
        <mxCell id="TWNNGLDI1bBoxXsqwokH-10" value="" style="endArrow=none;html=1;rounded=0;entryX=1;entryY=1;entryDx=0;entryDy=0;exitX=0.261;exitY=0.08;exitDx=0;exitDy=0;exitPerimeter=0;" edge="1" parent="1" source="TWNNGLDI1bBoxXsqwokH-5" target="TWNNGLDI1bBoxXsqwokH-1">
          <mxGeometry width="50" height="50" relative="1" as="geometry">
            <mxPoint x="1458" y="592" as="sourcePoint" />
            <mxPoint x="1492" y="543" as="targetPoint" />
          </mxGeometry>
        </mxCell>
        <mxCell id="TWNNGLDI1bBoxXsqwokH-11" value="" style="endArrow=none;html=1;rounded=0;entryX=0;entryY=1;entryDx=0;entryDy=0;exitX=0.744;exitY=0.07;exitDx=0;exitDy=0;exitPerimeter=0;" edge="1" parent="1" source="TWNNGLDI1bBoxXsqwokH-6" target="TWNNGLDI1bBoxXsqwokH-4">
          <mxGeometry width="50" height="50" relative="1" as="geometry">
            <mxPoint x="1468" y="602" as="sourcePoint" />
            <mxPoint x="1502" y="553" as="targetPoint" />
          </mxGeometry>
        </mxCell>
        <mxCell id="TWNNGLDI1bBoxXsqwokH-12" value="" style="endArrow=none;html=1;rounded=0;entryX=1;entryY=1;entryDx=0;entryDy=0;" edge="1" parent="1" source="TWNNGLDI1bBoxXsqwokH-7" target="TWNNGLDI1bBoxXsqwokH-4">
          <mxGeometry width="50" height="50" relative="1" as="geometry">
            <mxPoint x="1379" y="697" as="sourcePoint" />
            <mxPoint x="1412" y="654" as="targetPoint" />
          </mxGeometry>
        </mxCell>
        <mxCell id="TWNNGLDI1bBoxXsqwokH-13" value="" style="endArrow=none;html=1;rounded=0;entryX=0;entryY=1;entryDx=0;entryDy=0;exitX=0.5;exitY=0;exitDx=0;exitDy=0;" edge="1" parent="1" source="TWNNGLDI1bBoxXsqwokH-8" target="TWNNGLDI1bBoxXsqwokH-5">
          <mxGeometry width="50" height="50" relative="1" as="geometry">
            <mxPoint x="1389" y="707" as="sourcePoint" />
            <mxPoint x="1422" y="664" as="targetPoint" />
          </mxGeometry>
        </mxCell>
        <mxCell id="TWNNGLDI1bBoxXsqwokH-14" value="&lt;font style=&quot;font-size: 24px;&quot;&gt;1&lt;/font&gt;" style="ellipse;whiteSpace=wrap;html=1;aspect=fixed;" vertex="1" parent="1">
          <mxGeometry x="1830" y="462.5" width="80" height="80" as="geometry" />
        </mxCell>
        <mxCell id="TWNNGLDI1bBoxXsqwokH-15" value="&lt;span style=&quot;font-size: 24px;&quot;&gt;5&lt;/span&gt;" style="ellipse;whiteSpace=wrap;html=1;aspect=fixed;" vertex="1" parent="1">
          <mxGeometry x="1730" y="567.5" width="80" height="80" as="geometry" />
        </mxCell>
        <mxCell id="TWNNGLDI1bBoxXsqwokH-16" value="&lt;span style=&quot;font-size: 24px;&quot;&gt;6&lt;/span&gt;" style="ellipse;whiteSpace=wrap;html=1;aspect=fixed;" vertex="1" parent="1">
          <mxGeometry x="1910" y="567.5" width="80" height="80" as="geometry" />
        </mxCell>
        <mxCell id="TWNNGLDI1bBoxXsqwokH-17" value="&lt;font style=&quot;font-size: 24px;&quot;&gt;8&lt;/font&gt;" style="ellipse;whiteSpace=wrap;html=1;aspect=fixed;" vertex="1" parent="1">
          <mxGeometry x="1660" y="677.5" width="80" height="80" as="geometry" />
        </mxCell>
        <mxCell id="TWNNGLDI1bBoxXsqwokH-18" value="&lt;font style=&quot;font-size: 24px;&quot;&gt;7&lt;/font&gt;" style="ellipse;whiteSpace=wrap;html=1;aspect=fixed;" vertex="1" parent="1">
          <mxGeometry x="1780" y="677.5" width="80" height="80" as="geometry" />
        </mxCell>
        <mxCell id="TWNNGLDI1bBoxXsqwokH-19" value="&lt;font style=&quot;font-size: 24px;&quot;&gt;3&lt;/font&gt;" style="ellipse;whiteSpace=wrap;html=1;aspect=fixed;" vertex="1" parent="1">
          <mxGeometry x="1870" y="677.5" width="80" height="80" as="geometry" />
        </mxCell>
        <mxCell id="TWNNGLDI1bBoxXsqwokH-20" value="" style="endArrow=none;html=1;rounded=0;entryX=0;entryY=1;entryDx=0;entryDy=0;exitX=1;exitY=0;exitDx=0;exitDy=0;" edge="1" parent="1" source="TWNNGLDI1bBoxXsqwokH-15" target="TWNNGLDI1bBoxXsqwokH-14">
          <mxGeometry width="50" height="50" relative="1" as="geometry">
            <mxPoint x="1850" y="727.5" as="sourcePoint" />
            <mxPoint x="1900" y="677.5" as="targetPoint" />
          </mxGeometry>
        </mxCell>
        <mxCell id="TWNNGLDI1bBoxXsqwokH-21" value="" style="endArrow=none;html=1;rounded=0;entryX=1;entryY=1;entryDx=0;entryDy=0;exitX=0.261;exitY=0.08;exitDx=0;exitDy=0;exitPerimeter=0;" edge="1" parent="1" source="TWNNGLDI1bBoxXsqwokH-16" target="TWNNGLDI1bBoxXsqwokH-14">
          <mxGeometry width="50" height="50" relative="1" as="geometry">
            <mxPoint x="1818" y="589.5" as="sourcePoint" />
            <mxPoint x="1852" y="540.5" as="targetPoint" />
          </mxGeometry>
        </mxCell>
        <mxCell id="TWNNGLDI1bBoxXsqwokH-22" value="" style="endArrow=none;html=1;rounded=0;entryX=0;entryY=1;entryDx=0;entryDy=0;exitX=0.744;exitY=0.07;exitDx=0;exitDy=0;exitPerimeter=0;" edge="1" parent="1" source="TWNNGLDI1bBoxXsqwokH-17" target="TWNNGLDI1bBoxXsqwokH-15">
          <mxGeometry width="50" height="50" relative="1" as="geometry">
            <mxPoint x="1828" y="599.5" as="sourcePoint" />
            <mxPoint x="1862" y="550.5" as="targetPoint" />
          </mxGeometry>
        </mxCell>
        <mxCell id="TWNNGLDI1bBoxXsqwokH-23" value="" style="endArrow=none;html=1;rounded=0;entryX=1;entryY=1;entryDx=0;entryDy=0;" edge="1" parent="1" source="TWNNGLDI1bBoxXsqwokH-18" target="TWNNGLDI1bBoxXsqwokH-15">
          <mxGeometry width="50" height="50" relative="1" as="geometry">
            <mxPoint x="1739" y="694.5" as="sourcePoint" />
            <mxPoint x="1772" y="651.5" as="targetPoint" />
          </mxGeometry>
        </mxCell>
        <mxCell id="TWNNGLDI1bBoxXsqwokH-24" value="" style="endArrow=none;html=1;rounded=0;entryX=0;entryY=1;entryDx=0;entryDy=0;exitX=0.5;exitY=0;exitDx=0;exitDy=0;" edge="1" parent="1" source="TWNNGLDI1bBoxXsqwokH-19" target="TWNNGLDI1bBoxXsqwokH-16">
          <mxGeometry width="50" height="50" relative="1" as="geometry">
            <mxPoint x="1749" y="704.5" as="sourcePoint" />
            <mxPoint x="1782" y="661.5" as="targetPoint" />
          </mxGeometry>
        </mxCell>
        <mxCell id="TWNNGLDI1bBoxXsqwokH-25" value="&lt;font style=&quot;font-size: 24px;&quot;&gt;1&lt;/font&gt;" style="ellipse;whiteSpace=wrap;html=1;aspect=fixed;" vertex="1" parent="1">
          <mxGeometry x="1830" y="830" width="80" height="80" as="geometry" />
        </mxCell>
        <mxCell id="TWNNGLDI1bBoxXsqwokH-26" value="&lt;span style=&quot;font-size: 24px;&quot;&gt;8&lt;/span&gt;" style="ellipse;whiteSpace=wrap;html=1;aspect=fixed;" vertex="1" parent="1">
          <mxGeometry x="1730" y="935" width="80" height="80" as="geometry" />
        </mxCell>
        <mxCell id="TWNNGLDI1bBoxXsqwokH-27" value="&lt;span style=&quot;font-size: 24px;&quot;&gt;6&lt;/span&gt;" style="ellipse;whiteSpace=wrap;html=1;aspect=fixed;" vertex="1" parent="1">
          <mxGeometry x="1910" y="935" width="80" height="80" as="geometry" />
        </mxCell>
        <mxCell id="TWNNGLDI1bBoxXsqwokH-28" value="&lt;font style=&quot;font-size: 24px;&quot;&gt;5&lt;/font&gt;" style="ellipse;whiteSpace=wrap;html=1;aspect=fixed;" vertex="1" parent="1">
          <mxGeometry x="1660" y="1045" width="80" height="80" as="geometry" />
        </mxCell>
        <mxCell id="TWNNGLDI1bBoxXsqwokH-29" value="&lt;font style=&quot;font-size: 24px;&quot;&gt;7&lt;/font&gt;" style="ellipse;whiteSpace=wrap;html=1;aspect=fixed;" vertex="1" parent="1">
          <mxGeometry x="1780" y="1045" width="80" height="80" as="geometry" />
        </mxCell>
        <mxCell id="TWNNGLDI1bBoxXsqwokH-30" value="&lt;font style=&quot;font-size: 24px;&quot;&gt;3&lt;/font&gt;" style="ellipse;whiteSpace=wrap;html=1;aspect=fixed;" vertex="1" parent="1">
          <mxGeometry x="1870" y="1045" width="80" height="80" as="geometry" />
        </mxCell>
        <mxCell id="TWNNGLDI1bBoxXsqwokH-31" value="" style="endArrow=none;html=1;rounded=0;entryX=0;entryY=1;entryDx=0;entryDy=0;exitX=1;exitY=0;exitDx=0;exitDy=0;" edge="1" parent="1" source="TWNNGLDI1bBoxXsqwokH-26" target="TWNNGLDI1bBoxXsqwokH-25">
          <mxGeometry width="50" height="50" relative="1" as="geometry">
            <mxPoint x="1850" y="1095" as="sourcePoint" />
            <mxPoint x="1900" y="1045" as="targetPoint" />
          </mxGeometry>
        </mxCell>
        <mxCell id="TWNNGLDI1bBoxXsqwokH-32" value="" style="endArrow=none;html=1;rounded=0;entryX=1;entryY=1;entryDx=0;entryDy=0;exitX=0.261;exitY=0.08;exitDx=0;exitDy=0;exitPerimeter=0;" edge="1" parent="1" source="TWNNGLDI1bBoxXsqwokH-27" target="TWNNGLDI1bBoxXsqwokH-25">
          <mxGeometry width="50" height="50" relative="1" as="geometry">
            <mxPoint x="1818" y="957" as="sourcePoint" />
            <mxPoint x="1852" y="908" as="targetPoint" />
          </mxGeometry>
        </mxCell>
        <mxCell id="TWNNGLDI1bBoxXsqwokH-33" value="" style="endArrow=none;html=1;rounded=0;entryX=0;entryY=1;entryDx=0;entryDy=0;exitX=0.744;exitY=0.07;exitDx=0;exitDy=0;exitPerimeter=0;" edge="1" parent="1" source="TWNNGLDI1bBoxXsqwokH-28" target="TWNNGLDI1bBoxXsqwokH-26">
          <mxGeometry width="50" height="50" relative="1" as="geometry">
            <mxPoint x="1828" y="967" as="sourcePoint" />
            <mxPoint x="1862" y="918" as="targetPoint" />
          </mxGeometry>
        </mxCell>
        <mxCell id="TWNNGLDI1bBoxXsqwokH-34" value="" style="endArrow=none;html=1;rounded=0;entryX=1;entryY=1;entryDx=0;entryDy=0;" edge="1" parent="1" source="TWNNGLDI1bBoxXsqwokH-29" target="TWNNGLDI1bBoxXsqwokH-26">
          <mxGeometry width="50" height="50" relative="1" as="geometry">
            <mxPoint x="1739" y="1062" as="sourcePoint" />
            <mxPoint x="1772" y="1019" as="targetPoint" />
          </mxGeometry>
        </mxCell>
        <mxCell id="TWNNGLDI1bBoxXsqwokH-35" value="" style="endArrow=none;html=1;rounded=0;entryX=0;entryY=1;entryDx=0;entryDy=0;exitX=0.5;exitY=0;exitDx=0;exitDy=0;" edge="1" parent="1" source="TWNNGLDI1bBoxXsqwokH-30" target="TWNNGLDI1bBoxXsqwokH-27">
          <mxGeometry width="50" height="50" relative="1" as="geometry">
            <mxPoint x="1749" y="1072" as="sourcePoint" />
            <mxPoint x="1782" y="1029" as="targetPoint" />
          </mxGeometry>
        </mxCell>
        <mxCell id="TWNNGLDI1bBoxXsqwokH-36" value="&lt;font style=&quot;font-size: 24px;&quot;&gt;8&lt;/font&gt;" style="ellipse;whiteSpace=wrap;html=1;aspect=fixed;" vertex="1" parent="1">
          <mxGeometry x="1470" y="830" width="80" height="80" as="geometry" />
        </mxCell>
        <mxCell id="TWNNGLDI1bBoxXsqwokH-37" value="&lt;span style=&quot;font-size: 24px;&quot;&gt;1&lt;/span&gt;" style="ellipse;whiteSpace=wrap;html=1;aspect=fixed;" vertex="1" parent="1">
          <mxGeometry x="1370" y="935" width="80" height="80" as="geometry" />
        </mxCell>
        <mxCell id="TWNNGLDI1bBoxXsqwokH-38" value="&lt;span style=&quot;font-size: 24px;&quot;&gt;6&lt;/span&gt;" style="ellipse;whiteSpace=wrap;html=1;aspect=fixed;" vertex="1" parent="1">
          <mxGeometry x="1550" y="935" width="80" height="80" as="geometry" />
        </mxCell>
        <mxCell id="TWNNGLDI1bBoxXsqwokH-39" value="&lt;font style=&quot;font-size: 24px;&quot;&gt;5&lt;/font&gt;" style="ellipse;whiteSpace=wrap;html=1;aspect=fixed;" vertex="1" parent="1">
          <mxGeometry x="1300" y="1045" width="80" height="80" as="geometry" />
        </mxCell>
        <mxCell id="TWNNGLDI1bBoxXsqwokH-40" value="&lt;font style=&quot;font-size: 24px;&quot;&gt;7&lt;/font&gt;" style="ellipse;whiteSpace=wrap;html=1;aspect=fixed;" vertex="1" parent="1">
          <mxGeometry x="1420" y="1045" width="80" height="80" as="geometry" />
        </mxCell>
        <mxCell id="TWNNGLDI1bBoxXsqwokH-41" value="&lt;font style=&quot;font-size: 24px;&quot;&gt;3&lt;/font&gt;" style="ellipse;whiteSpace=wrap;html=1;aspect=fixed;" vertex="1" parent="1">
          <mxGeometry x="1510" y="1045" width="80" height="80" as="geometry" />
        </mxCell>
        <mxCell id="TWNNGLDI1bBoxXsqwokH-42" value="" style="endArrow=none;html=1;rounded=0;entryX=0;entryY=1;entryDx=0;entryDy=0;exitX=1;exitY=0;exitDx=0;exitDy=0;" edge="1" parent="1" source="TWNNGLDI1bBoxXsqwokH-37" target="TWNNGLDI1bBoxXsqwokH-36">
          <mxGeometry width="50" height="50" relative="1" as="geometry">
            <mxPoint x="1490" y="1095" as="sourcePoint" />
            <mxPoint x="1540" y="1045" as="targetPoint" />
          </mxGeometry>
        </mxCell>
        <mxCell id="TWNNGLDI1bBoxXsqwokH-43" value="" style="endArrow=none;html=1;rounded=0;entryX=1;entryY=1;entryDx=0;entryDy=0;exitX=0.261;exitY=0.08;exitDx=0;exitDy=0;exitPerimeter=0;" edge="1" parent="1" source="TWNNGLDI1bBoxXsqwokH-38" target="TWNNGLDI1bBoxXsqwokH-36">
          <mxGeometry width="50" height="50" relative="1" as="geometry">
            <mxPoint x="1458" y="957" as="sourcePoint" />
            <mxPoint x="1492" y="908" as="targetPoint" />
          </mxGeometry>
        </mxCell>
        <mxCell id="TWNNGLDI1bBoxXsqwokH-44" value="" style="endArrow=none;html=1;rounded=0;entryX=0;entryY=1;entryDx=0;entryDy=0;exitX=0.744;exitY=0.07;exitDx=0;exitDy=0;exitPerimeter=0;" edge="1" parent="1" source="TWNNGLDI1bBoxXsqwokH-39" target="TWNNGLDI1bBoxXsqwokH-37">
          <mxGeometry width="50" height="50" relative="1" as="geometry">
            <mxPoint x="1468" y="967" as="sourcePoint" />
            <mxPoint x="1502" y="918" as="targetPoint" />
          </mxGeometry>
        </mxCell>
        <mxCell id="TWNNGLDI1bBoxXsqwokH-45" value="" style="endArrow=none;html=1;rounded=0;entryX=1;entryY=1;entryDx=0;entryDy=0;" edge="1" parent="1" source="TWNNGLDI1bBoxXsqwokH-40" target="TWNNGLDI1bBoxXsqwokH-37">
          <mxGeometry width="50" height="50" relative="1" as="geometry">
            <mxPoint x="1379" y="1062" as="sourcePoint" />
            <mxPoint x="1412" y="1019" as="targetPoint" />
          </mxGeometry>
        </mxCell>
        <mxCell id="TWNNGLDI1bBoxXsqwokH-46" value="" style="endArrow=none;html=1;rounded=0;entryX=0;entryY=1;entryDx=0;entryDy=0;exitX=0.5;exitY=0;exitDx=0;exitDy=0;" edge="1" parent="1" source="TWNNGLDI1bBoxXsqwokH-41" target="TWNNGLDI1bBoxXsqwokH-38">
          <mxGeometry width="50" height="50" relative="1" as="geometry">
            <mxPoint x="1389" y="1072" as="sourcePoint" />
            <mxPoint x="1422" y="1029" as="targetPoint" />
          </mxGeometry>
        </mxCell>
        <mxCell id="TWNNGLDI1bBoxXsqwokH-47" value="&lt;font style=&quot;font-size: 24px;&quot;&gt;8&lt;/font&gt;" style="ellipse;whiteSpace=wrap;html=1;aspect=fixed;" vertex="1" parent="1">
          <mxGeometry x="1610" y="1190" width="80" height="80" as="geometry" />
        </mxCell>
        <mxCell id="TWNNGLDI1bBoxXsqwokH-48" value="&lt;span style=&quot;font-size: 24px;&quot;&gt;7&lt;/span&gt;" style="ellipse;whiteSpace=wrap;html=1;aspect=fixed;" vertex="1" parent="1">
          <mxGeometry x="1510" y="1295" width="80" height="80" as="geometry" />
        </mxCell>
        <mxCell id="TWNNGLDI1bBoxXsqwokH-49" value="&lt;span style=&quot;font-size: 24px;&quot;&gt;6&lt;/span&gt;" style="ellipse;whiteSpace=wrap;html=1;aspect=fixed;" vertex="1" parent="1">
          <mxGeometry x="1690" y="1295" width="80" height="80" as="geometry" />
        </mxCell>
        <mxCell id="TWNNGLDI1bBoxXsqwokH-50" value="&lt;font style=&quot;font-size: 24px;&quot;&gt;5&lt;/font&gt;" style="ellipse;whiteSpace=wrap;html=1;aspect=fixed;" vertex="1" parent="1">
          <mxGeometry x="1440" y="1405" width="80" height="80" as="geometry" />
        </mxCell>
        <mxCell id="TWNNGLDI1bBoxXsqwokH-51" value="&lt;font style=&quot;font-size: 24px;&quot;&gt;1&lt;/font&gt;" style="ellipse;whiteSpace=wrap;html=1;aspect=fixed;" vertex="1" parent="1">
          <mxGeometry x="1560" y="1405" width="80" height="80" as="geometry" />
        </mxCell>
        <mxCell id="TWNNGLDI1bBoxXsqwokH-52" value="&lt;font style=&quot;font-size: 24px;&quot;&gt;3&lt;/font&gt;" style="ellipse;whiteSpace=wrap;html=1;aspect=fixed;" vertex="1" parent="1">
          <mxGeometry x="1650" y="1405" width="80" height="80" as="geometry" />
        </mxCell>
        <mxCell id="TWNNGLDI1bBoxXsqwokH-53" value="" style="endArrow=none;html=1;rounded=0;entryX=0;entryY=1;entryDx=0;entryDy=0;exitX=1;exitY=0;exitDx=0;exitDy=0;" edge="1" parent="1" source="TWNNGLDI1bBoxXsqwokH-48" target="TWNNGLDI1bBoxXsqwokH-47">
          <mxGeometry width="50" height="50" relative="1" as="geometry">
            <mxPoint x="1630" y="1455" as="sourcePoint" />
            <mxPoint x="1680" y="1405" as="targetPoint" />
          </mxGeometry>
        </mxCell>
        <mxCell id="TWNNGLDI1bBoxXsqwokH-54" value="" style="endArrow=none;html=1;rounded=0;entryX=1;entryY=1;entryDx=0;entryDy=0;exitX=0.261;exitY=0.08;exitDx=0;exitDy=0;exitPerimeter=0;" edge="1" parent="1" source="TWNNGLDI1bBoxXsqwokH-49" target="TWNNGLDI1bBoxXsqwokH-47">
          <mxGeometry width="50" height="50" relative="1" as="geometry">
            <mxPoint x="1598" y="1317" as="sourcePoint" />
            <mxPoint x="1632" y="1268" as="targetPoint" />
          </mxGeometry>
        </mxCell>
        <mxCell id="TWNNGLDI1bBoxXsqwokH-55" value="" style="endArrow=none;html=1;rounded=0;entryX=0;entryY=1;entryDx=0;entryDy=0;exitX=0.744;exitY=0.07;exitDx=0;exitDy=0;exitPerimeter=0;" edge="1" parent="1" source="TWNNGLDI1bBoxXsqwokH-50" target="TWNNGLDI1bBoxXsqwokH-48">
          <mxGeometry width="50" height="50" relative="1" as="geometry">
            <mxPoint x="1608" y="1327" as="sourcePoint" />
            <mxPoint x="1642" y="1278" as="targetPoint" />
          </mxGeometry>
        </mxCell>
        <mxCell id="TWNNGLDI1bBoxXsqwokH-56" value="" style="endArrow=none;html=1;rounded=0;entryX=1;entryY=1;entryDx=0;entryDy=0;" edge="1" parent="1" source="TWNNGLDI1bBoxXsqwokH-51" target="TWNNGLDI1bBoxXsqwokH-48">
          <mxGeometry width="50" height="50" relative="1" as="geometry">
            <mxPoint x="1519" y="1422" as="sourcePoint" />
            <mxPoint x="1552" y="1379" as="targetPoint" />
          </mxGeometry>
        </mxCell>
        <mxCell id="TWNNGLDI1bBoxXsqwokH-57" value="" style="endArrow=none;html=1;rounded=0;entryX=0;entryY=1;entryDx=0;entryDy=0;exitX=0.5;exitY=0;exitDx=0;exitDy=0;" edge="1" parent="1" source="TWNNGLDI1bBoxXsqwokH-52" target="TWNNGLDI1bBoxXsqwokH-49">
          <mxGeometry width="50" height="50" relative="1" as="geometry">
            <mxPoint x="1529" y="1432" as="sourcePoint" />
            <mxPoint x="1562" y="1389" as="targetPoint" />
          </mxGeometry>
        </mxCell>
        <mxCell id="TWNNGLDI1bBoxXsqwokH-67" value="" style="edgeStyle=elbowEdgeStyle;elbow=horizontal;endArrow=classic;html=1;curved=0;rounded=0;endSize=8;startSize=8;" edge="1" parent="1">
          <mxGeometry width="50" height="50" relative="1" as="geometry">
            <mxPoint x="2010" y="610" as="sourcePoint" />
            <mxPoint x="2010" y="980" as="targetPoint" />
            <Array as="points">
              <mxPoint x="2080" y="780" />
            </Array>
          </mxGeometry>
        </mxCell>
        <mxCell id="TWNNGLDI1bBoxXsqwokH-68" value="" style="endArrow=classic;html=1;rounded=0;" edge="1" parent="1">
          <mxGeometry width="50" height="50" relative="1" as="geometry">
            <mxPoint x="1640" y="610" as="sourcePoint" />
            <mxPoint x="1700" y="610" as="targetPoint" />
          </mxGeometry>
        </mxCell>
        <mxCell id="TWNNGLDI1bBoxXsqwokH-70" value="" style="endArrow=classic;html=1;rounded=0;" edge="1" parent="1">
          <mxGeometry width="50" height="50" relative="1" as="geometry">
            <mxPoint x="1700" y="990" as="sourcePoint" />
            <mxPoint x="1640" y="990" as="targetPoint" />
          </mxGeometry>
        </mxCell>
        <mxCell id="TWNNGLDI1bBoxXsqwokH-71" value="" style="edgeStyle=elbowEdgeStyle;elbow=horizontal;endArrow=classic;html=1;curved=0;rounded=0;endSize=8;startSize=8;" edge="1" parent="1">
          <mxGeometry width="50" height="50" relative="1" as="geometry">
            <mxPoint x="1340" y="980" as="sourcePoint" />
            <mxPoint x="1450" y="1340" as="targetPoint" />
            <Array as="points">
              <mxPoint x="1260" y="1150" />
            </Array>
          </mxGeometry>
        </mxCell>
      </root>
    </mxGraphModel>
  </diagram>
</mxfile>
